<svg xmlns="http://www.w3.org/2000/svg" width="1200" height="1030" viewBox="0 0 1200 1030" font-family="Segoe UI, Arial, sans-serif">
  <defs>
    <marker id="arrow" markerWidth="9" markerHeight="9" refX="7" refY="3" orient="auto" markerUnits="strokeWidth">
      <path d="M0,0 L7,3 L0,6 Z" fill="#64748b"/>
    </marker>
  </defs>

  <!-- canvas -->
  <rect x="0" y="0" width="1200" height="1030" fill="#ffffff"/>

  <!-- title -->
  <text x="600" y="46" text-anchor="middle" font-size="25" font-weight="700" fill="#111827">CardLens - System Architecture</text>
  <text x="600" y="72" text-anchor="middle" font-size="14" fill="#6b7280">Modular monolith - FastAPI backend, Next.js web client, Azure cloud</text>

  <!-- ============ Layer 1: Clients ============ -->
  <g>
    <rect x="40" y="95" width="1120" height="110" rx="10" fill="#f8fafc" stroke="#cbd5e1" stroke-width="1.5"/>
    <rect x="40" y="95" width="6" height="110" rx="3" fill="#2563eb"/>
    <text x="64" y="121" font-size="15" font-weight="700" fill="#2563eb">Client Applications</text>

    <!-- Web App (implemented) -->
    <rect x="64" y="135" width="250" height="55" rx="7" fill="#2563eb"/>
    <text x="189" y="157" text-anchor="middle" font-size="14" font-weight="600" fill="#ffffff">Web App</text>
    <text x="189" y="175" text-anchor="middle" font-size="11.5" fill="#dbeafe">Next.js + React + TS</text>
    <!-- Desktop (future) -->
    <rect x="338" y="135" width="250" height="55" rx="7" fill="#ffffff" stroke="#2563eb" stroke-width="1.5" stroke-dasharray="5 4"/>
    <text x="463" y="157" text-anchor="middle" font-size="14" font-weight="600" fill="#2563eb">Desktop *</text>
    <text x="463" y="175" text-anchor="middle" font-size="11.5" fill="#64748b">Tauri v2</text>
    <!-- Browser Extension (future) -->
    <rect x="612" y="135" width="250" height="55" rx="7" fill="#ffffff" stroke="#2563eb" stroke-width="1.5" stroke-dasharray="5 4"/>
    <text x="737" y="157" text-anchor="middle" font-size="14" font-weight="600" fill="#2563eb">Browser Extension *</text>
    <text x="737" y="175" text-anchor="middle" font-size="11.5" fill="#64748b">React + TS</text>
    <!-- Mobile (future) -->
    <rect x="886" y="135" width="250" height="55" rx="7" fill="#ffffff" stroke="#2563eb" stroke-width="1.5" stroke-dasharray="5 4"/>
    <text x="1011" y="157" text-anchor="middle" font-size="14" font-weight="600" fill="#2563eb">Mobile *</text>
    <text x="1011" y="175" text-anchor="middle" font-size="11.5" fill="#64748b">to be decided</text>
  </g>

  <!-- arrows L1 -> L2 -->
  <line x1="300" y1="206" x2="300" y2="246" stroke="#64748b" stroke-width="2" marker-end="url(#arrow)"/>
  <line x1="900" y1="206" x2="900" y2="246" stroke="#64748b" stroke-width="2" marker-end="url(#arrow)"/>
  <text x="600" y="231" text-anchor="middle" font-size="12.5" fill="#475569">HTTPS / JSON  -  REST /api/v1</text>

  <!-- ============ Layer 2: API ============ -->
  <g>
    <rect x="40" y="250" width="1120" height="110" rx="10" fill="#f8fafc" stroke="#cbd5e1" stroke-width="1.5"/>
    <rect x="40" y="250" width="6" height="110" rx="3" fill="#0d9488"/>
    <text x="64" y="276" font-size="15" font-weight="700" fill="#0d9488">API Layer - FastAPI (Uvicorn ASGI)</text>

    <rect x="64" y="290" width="250" height="55" rx="7" fill="#0d9488"/>
    <text x="189" y="322" text-anchor="middle" font-size="13" font-weight="600" fill="#ffffff">Correlation ID + Logging</text>
    <rect x="338" y="290" width="250" height="55" rx="7" fill="#0d9488"/>
    <text x="463" y="322" text-anchor="middle" font-size="13" font-weight="600" fill="#ffffff">CORS</text>
    <rect x="612" y="290" width="250" height="55" rx="7" fill="#0d9488"/>
    <text x="737" y="322" text-anchor="middle" font-size="13" font-weight="600" fill="#ffffff">RFC 7807 Error Handler</text>
    <rect x="886" y="290" width="250" height="55" rx="7" fill="#0d9488"/>
    <text x="1011" y="322" text-anchor="middle" font-size="13" font-weight="600" fill="#ffffff">OpenAPI / Swagger UI</text>
  </g>

  <!-- arrows L2 -> L3 -->
  <line x1="300" y1="361" x2="300" y2="401" stroke="#64748b" stroke-width="2" marker-end="url(#arrow)"/>
  <line x1="900" y1="361" x2="900" y2="401" stroke="#64748b" stroke-width="2" marker-end="url(#arrow)"/>
  <text x="600" y="386" text-anchor="middle" font-size="12.5" fill="#475569">middleware  ->  routers  ->  services</text>

  <!-- ============ Layer 3: Domain Modules ============ -->
  <g>
    <rect x="40" y="405" width="1120" height="210" rx="10" fill="#f8fafc" stroke="#cbd5e1" stroke-width="1.5"/>
    <rect x="40" y="405" width="6" height="210" rx="3" fill="#4f46e5"/>
    <text x="64" y="431" font-size="15" font-weight="700" fill="#4f46e5">Domain Modules - Modular Monolith</text>

    <!-- row 1 -->
    <rect x="64" y="448" width="250" height="30" rx="6" fill="#4f46e5"/>
    <text x="189" y="463" text-anchor="middle" dominant-baseline="central" font-size="13" font-weight="600" fill="#ffffff">auth</text>
    <rect x="338" y="448" width="250" height="30" rx="6" fill="#4f46e5"/>
    <text x="463" y="463" text-anchor="middle" dominant-baseline="central" font-size="13" font-weight="600" fill="#ffffff">users</text>
    <rect x="612" y="448" width="250" height="30" rx="6" fill="#ffffff" stroke="#6366f1" stroke-width="1.3"/>
    <text x="737" y="463" text-anchor="middle" dominant-baseline="central" font-size="13" fill="#4f46e5">gmail</text>
    <rect x="886" y="448" width="250" height="30" rx="6" fill="#ffffff" stroke="#6366f1" stroke-width="1.3"/>
    <text x="1011" y="463" text-anchor="middle" dominant-baseline="central" font-size="13" fill="#4f46e5">ingestion</text>

    <!-- row 2 -->
    <rect x="64" y="486" width="250" height="30" rx="6" fill="#ffffff" stroke="#6366f1" stroke-width="1.3"/>
    <text x="189" y="501" text-anchor="middle" dominant-baseline="central" font-size="13" fill="#4f46e5">attachments</text>
    <rect x="338" y="486" width="250" height="30" rx="6" fill="#ffffff" stroke="#6366f1" stroke-width="1.3"/>
    <text x="463" y="501" text-anchor="middle" dominant-baseline="central" font-size="13" fill="#4f46e5">pdf</text>
    <rect x="612" y="486" width="250" height="30" rx="6" fill="#ffffff" stroke="#6366f1" stroke-width="1.3"/>
    <text x="737" y="501" text-anchor="middle" dominant-baseline="central" font-size="13" fill="#4f46e5">parsers</text>
    <rect x="886" y="486" width="250" height="30" rx="6" fill="#ffffff" stroke="#6366f1" stroke-width="1.3"/>
    <text x="1011" y="501" text-anchor="middle" dominant-baseline="central" font-size="13" fill="#4f46e5">cards</text>

    <!-- row 3 -->
    <rect x="64" y="524" width="250" height="30" rx="6" fill="#4f46e5"/>
    <text x="189" y="539" text-anchor="middle" dominant-baseline="central" font-size="13" font-weight="600" fill="#ffffff">registry</text>
    <rect x="338" y="524" width="250" height="30" rx="6" fill="#ffffff" stroke="#6366f1" stroke-width="1.3"/>
    <text x="463" y="539" text-anchor="middle" dominant-baseline="central" font-size="13" fill="#4f46e5">rewards</text>
    <rect x="612" y="524" width="250" height="30" rx="6" fill="#ffffff" stroke="#6366f1" stroke-width="1.3"/>
    <text x="737" y="539" text-anchor="middle" dominant-baseline="central" font-size="13" fill="#4f46e5">milestones</text>
    <rect x="886" y="524" width="250" height="30" rx="6" fill="#ffffff" stroke="#6366f1" stroke-width="1.3"/>
    <text x="1011" y="539" text-anchor="middle" dominant-baseline="central" font-size="13" fill="#4f46e5">anomalies</text>

    <!-- row 4 -->
    <rect x="64" y="562" width="250" height="30" rx="6" fill="#ffffff" stroke="#6366f1" stroke-width="1.3"/>
    <text x="189" y="577" text-anchor="middle" dominant-baseline="central" font-size="13" fill="#4f46e5">bank_accounts</text>
    <rect x="338" y="562" width="250" height="30" rx="6" fill="#ffffff" stroke="#6366f1" stroke-width="1.3"/>
    <text x="463" y="577" text-anchor="middle" dominant-baseline="central" font-size="13" fill="#4f46e5">documents</text>
    <rect x="612" y="562" width="250" height="30" rx="6" fill="#ffffff" stroke="#6366f1" stroke-width="1.3"/>
    <text x="737" y="577" text-anchor="middle" dominant-baseline="central" font-size="13" fill="#4f46e5">notifications</text>
    <rect x="886" y="562" width="250" height="30" rx="6" fill="#ffffff" stroke="#6366f1" stroke-width="1.3"/>
    <text x="1011" y="577" text-anchor="middle" dominant-baseline="central" font-size="13" fill="#4f46e5">admin</text>
  </g>

  <!-- arrows L3 -> L4 -->
  <line x1="300" y1="616" x2="300" y2="656" stroke="#64748b" stroke-width="2" marker-end="url(#arrow)"/>
  <line x1="900" y1="616" x2="900" y2="656" stroke="#64748b" stroke-width="2" marker-end="url(#arrow)"/>
  <text x="600" y="641" text-anchor="middle" font-size="12.5" fill="#475569">services  ->  shared kernel</text>

  <!-- ============ Layer 4: Shared Kernel ============ -->
  <g>
    <rect x="40" y="660" width="1120" height="110" rx="10" fill="#f8fafc" stroke="#cbd5e1" stroke-width="1.5"/>
    <rect x="40" y="660" width="6" height="110" rx="3" fill="#475569"/>
    <text x="64" y="686" font-size="15" font-weight="700" fill="#475569">Shared Kernel</text>

    <rect x="64" y="700" width="250" height="55" rx="7" fill="#475569"/>
    <text x="189" y="721" text-anchor="middle" font-size="13.5" font-weight="600" fill="#ffffff">Logging</text>
    <text x="189" y="739" text-anchor="middle" font-size="11.5" fill="#e2e8f0">structlog JSON</text>
    <rect x="338" y="700" width="250" height="55" rx="7" fill="#475569"/>
    <text x="463" y="721" text-anchor="middle" font-size="13.5" font-weight="600" fill="#ffffff">Security</text>
    <text x="463" y="739" text-anchor="middle" font-size="11.5" fill="#e2e8f0">JWT + argon2</text>
    <rect x="612" y="700" width="250" height="55" rx="7" fill="#475569"/>
    <text x="737" y="721" text-anchor="middle" font-size="13.5" font-weight="600" fill="#ffffff">Database</text>
    <text x="737" y="739" text-anchor="middle" font-size="11.5" fill="#e2e8f0">SQLAlchemy 2.0</text>
    <rect x="886" y="700" width="250" height="55" rx="7" fill="#475569"/>
    <text x="1011" y="721" text-anchor="middle" font-size="13.5" font-weight="600" fill="#ffffff">Errors / Config</text>
    <text x="1011" y="739" text-anchor="middle" font-size="11.5" fill="#e2e8f0">RFC 7807 + pydantic</text>
  </g>

  <!-- arrows L4 -> L5 -->
  <line x1="300" y1="771" x2="300" y2="811" stroke="#64748b" stroke-width="2" marker-end="url(#arrow)"/>
  <line x1="900" y1="771" x2="900" y2="811" stroke="#64748b" stroke-width="2" marker-end="url(#arrow)"/>
  <text x="600" y="796" text-anchor="middle" font-size="12.5" fill="#475569">repositories persist  /  clients integrate</text>

  <!-- ============ Layer 5: Data, Infrastructure and External ============ -->
  <g>
    <rect x="40" y="815" width="1120" height="170" rx="10" fill="#f8fafc" stroke="#cbd5e1" stroke-width="1.5"/>
    <rect x="40" y="815" width="6" height="170" rx="3" fill="#b45309"/>
    <text x="64" y="841" font-size="15" font-weight="700" fill="#b45309">Data, Infrastructure and External Integrations</text>

    <!-- row 1 -->
    <rect x="64" y="858" width="250" height="52" rx="7" fill="#b45309"/>
    <text x="189" y="878" text-anchor="middle" font-size="13" font-weight="600" fill="#ffffff">PostgreSQL</text>
    <text x="189" y="896" text-anchor="middle" font-size="11" fill="#fde7cf">Alembic migrations</text>
    <rect x="338" y="858" width="250" height="52" rx="7" fill="#ffffff" stroke="#b45309" stroke-width="1.4"/>
    <text x="463" y="878" text-anchor="middle" font-size="13" font-weight="600" fill="#b45309">Blob Storage</text>
    <text x="463" y="896" text-anchor="middle" font-size="11" fill="#92400e">Azurite (local)</text>
    <rect x="612" y="858" width="250" height="52" rx="7" fill="#ffffff" stroke="#b45309" stroke-width="1.4" stroke-dasharray="5 4"/>
    <text x="737" y="878" text-anchor="middle" font-size="13" font-weight="600" fill="#b45309">Redis / Service Bus *</text>
    <text x="737" y="896" text-anchor="middle" font-size="11" fill="#92400e">background jobs</text>
    <rect x="886" y="858" width="250" height="52" rx="7" fill="#b45309"/>
    <text x="1011" y="878" text-anchor="middle" font-size="13" font-weight="600" fill="#ffffff">Rotating Logs</text>
    <text x="1011" y="896" text-anchor="middle" font-size="11" fill="#fde7cf">10 MiB files</text>

    <!-- row 2 -->
    <rect x="64" y="922" width="250" height="52" rx="7" fill="#ffffff" stroke="#b45309" stroke-width="1.4"/>
    <text x="189" y="942" text-anchor="middle" font-size="13" font-weight="600" fill="#b45309">Gmail API</text>
    <text x="189" y="960" text-anchor="middle" font-size="11" fill="#92400e">OAuth read-only</text>
    <rect x="338" y="922" width="250" height="52" rx="7" fill="#ffffff" stroke="#b45309" stroke-width="1.4"/>
    <text x="463" y="942" text-anchor="middle" font-size="13" font-weight="600" fill="#b45309">Azure Doc Intelligence</text>
    <text x="463" y="960" text-anchor="middle" font-size="11" fill="#92400e">OCR fallback</text>
    <rect x="612" y="922" width="250" height="52" rx="7" fill="#ffffff" stroke="#b45309" stroke-width="1.4"/>
    <text x="737" y="942" text-anchor="middle" font-size="13" font-weight="600" fill="#b45309">Azure Key Vault</text>
    <text x="737" y="960" text-anchor="middle" font-size="11" fill="#92400e">secrets</text>
    <rect x="886" y="922" width="250" height="52" rx="7" fill="#ffffff" stroke="#b45309" stroke-width="1.4"/>
    <text x="1011" y="942" text-anchor="middle" font-size="13" font-weight="600" fill="#b45309">App Insights</text>
    <text x="1011" y="960" text-anchor="middle" font-size="11" fill="#92400e">telemetry</text>
  </g>

  <!-- legend -->
  <rect x="373" y="1000" width="18" height="14" rx="3" fill="#4f46e5"/>
  <text x="398" y="1011" font-size="12" fill="#475569">Implemented</text>
  <rect x="503" y="1000" width="18" height="14" rx="3" fill="#ffffff" stroke="#6366f1" stroke-width="1.3"/>
  <text x="528" y="1011" font-size="12" fill="#475569">Planned</text>
  <rect x="610" y="1000" width="18" height="14" rx="3" fill="#ffffff" stroke="#94a3b8" stroke-width="1.3" stroke-dasharray="5 4"/>
  <text x="635" y="1011" font-size="12" fill="#475569">* Future / optional</text>
</svg>
